<svg width="289" height="172" viewBox="0 0 289 172" fill="none" xmlns="http://www.w3.org/2000/svg">
<path d="M38.2108 167.897C45.2622 169.698 43.2813 169.622 86.8088 169.813C119.415 169.93 152.022 169.982 184.628 169.974L205.408 169.968L187.281 152.06L169.154 134.331L169.073 126.36L168.989 118.391L159.462 108.18L149.935 97.9722V83.2036L141.77 75.0169L133.605 66.8254L132.472 67.1415C131.849 67.314 130.315 67.3811 129.06 67.2852C120.522 66.6409 115.356 57.6207 119.156 49.9945C120.647 47.0077 123.23 44.8592 126.556 43.8461C134.064 41.5611 141.875 47.1346 141.945 54.8303C141.954 56.1333 141.854 57.6399 141.715 58.1764C141.467 59.1392 141.61 59.2973 151.168 68.4804L160.874 77.8072V93.625L165.859 98.7507L170.846 103.876L170.862 101.939C170.874 100.303 170.786 99.9722 170.284 99.8117C169.238 99.4812 166.585 96.5902 165.744 94.8705C165.297 93.9531 164.776 92.3148 164.585 91.2298C163.694 86.1664 166.583 80.8635 171.5 78.5258C173.326 77.6587 173.833 77.5605 176.502 77.5605C179.171 77.5605 179.677 77.6587 181.503 78.5258C185.123 80.2479 187.613 83.4718 188.411 87.4814C189.345 92.1663 186.64 97.6752 182.268 100.003L180.877 100.741L180.894 115.153L180.91 129.562L188.239 137.081L195.565 144.599L195.553 135.828L195.541 127.057L193.924 125.96C190.593 123.704 188.827 119.902 189.066 115.517C189.307 111.115 191.611 107.634 195.697 105.5C197.477 104.569 197.799 104.506 200.882 104.504C203.957 104.501 204.299 104.566 206.227 105.517C208.776 106.81 210.829 108.906 212.072 111.483C212.796 113.031 212.908 113.675 212.908 116.25C212.908 118.932 212.813 119.426 211.938 121.261C210.858 123.526 208.555 125.998 206.746 126.832L205.582 127.371L205.575 141.004L205.568 154.637L211.974 162.093C215.496 166.192 218.655 169.892 218.655 169.964L242.288 169.957L245.571 169.128C247.375 168.673 250.118 167.856 251.664 167.313C254.407 166.345 265.571 161.097 265.571 160.774C265.571 160.685 264.336 159.334 262.828 157.773C257.645 152.415 193.895 86.9568 187.298 80.2216C183.668 76.5186 179.352 72.0924 177.711 70.3894L174.724 67.2948L171.627 67.2493C168.991 67.2134 168.27 67.084 166.748 66.3727C164.382 65.2733 161.978 62.9715 160.767 60.6482C159.837 58.8662 159.782 58.574 159.782 55.3166C159.782 51.9897 159.82 51.8052 160.85 49.8987C162.2 47.4029 164.709 45.082 167.051 44.1622C168.418 43.6233 169.515 43.4532 171.658 43.4365C174.177 43.4197 174.686 43.5179 176.518 44.3874C178.982 45.5562 180.507 46.8472 181.761 48.828C182.707 50.3037 183.317 51.9699 183.548 53.7085C183.779 55.447 183.626 57.2153 183.099 58.8878L182.509 60.7919L190.887 68.7846C195.494 73.1798 199.346 76.7749 199.446 76.7749C199.546 76.7749 199.627 76.4588 199.627 76.0707C199.627 75.618 199.233 75.0983 198.528 74.6169C195.771 72.7367 193.912 68.8685 193.912 65.029C193.914 61.3883 194.774 59.3428 197.412 56.6986C200.103 54.0016 202.098 53.1705 205.881 53.1705C209.393 53.1705 211.503 53.9848 214.005 56.3058C219.661 61.5584 219.205 70.2241 213.03 74.7678L211.506 75.8887V89.146L218.144 95.8046C221.793 99.4668 224.889 102.463 225.018 102.463C225.15 102.463 225.255 102.006 225.255 101.445C225.255 100.583 225.045 100.296 223.874 99.553C221.993 98.3626 220.347 96.4681 219.36 94.3555C218.643 92.8202 218.536 92.1927 218.536 89.4574C218.536 86.5424 218.61 86.1688 219.563 84.2287C224.02 75.1558 236.892 75.2851 241.37 84.4515C242.204 86.1568 242.288 86.6215 242.278 89.4646C242.271 92.2142 242.168 92.8082 241.427 94.3316C240.338 96.5806 238.677 98.5064 236.949 99.5195L235.571 100.331V114.018L255.11 132.674C265.858 142.937 274.783 151.332 274.94 151.332C275.855 151.332 282.305 141.593 284.694 136.609C288.04 129.622 289.232 124.36 288.907 117.989C288.133 102.729 279.143 88.1999 265.186 79.6443C259.721 76.2959 254.582 74.2935 247.055 72.5738L246.194 72.3798V69.4744C246.194 55.5657 240.464 40.4042 230.892 29.0032C218.978 14.8069 202.282 5.65977 182.753 2.62269C177.618 1.82749 163.137 1.82509 158.22 2.62269C143.304 5.03702 129.084 11.7866 118.355 21.5398L116.305 23.4056L112.73 23.0104C107.691 22.4523 99.4971 22.4859 94.8854 23.0823C83.2412 24.5912 71.7739 29.2906 62.5886 36.3204C60.0366 38.2773 54.622 43.5634 52.4379 46.2364C46.8417 53.0819 42.4067 62.3176 40.7197 70.6433C40.4426 72.0061 40.1558 73.2229 40.0817 73.3426C40.0053 73.4648 39.3434 73.6588 38.6098 73.7762C37.8762 73.8935 35.7973 74.4827 33.9933 75.0863C17.097 80.7437 4.72405 94.6549 0.795679 112.408C-0.217477 116.983 -0.207919 125.737 0.814795 130.345C4.82919 148.441 19.4315 163.104 38.2108 167.897Z" fill="#B3C2FF"/>
<path d="M193.728 117.694C194.218 120.322 195.943 122.312 198.564 123.275C203.279 125.007 208.364 121.361 208.364 116.25C208.364 112.935 206.215 110.152 202.915 109.189C197.697 107.668 192.719 112.276 193.728 117.694Z" fill="#B3C2FF"/>
<path d="M122.618 55.3189C122.616 58.289 124.241 60.8255 126.967 62.1117C128.898 63.0218 131.911 62.7847 133.873 61.568C137.835 59.1129 138.551 53.616 135.34 50.3011C130.661 45.4748 122.625 48.6436 122.618 55.3189Z" fill="#B3C2FF"/>
<path d="M223.551 92.3843C224.153 93.8956 226.45 96.0729 227.881 96.4896C232.923 97.9555 237.752 94.5184 237.752 89.4646C237.752 86.4922 236.235 84.097 233.559 82.8491C230.739 81.5317 227.795 81.9437 225.487 83.9796C223.831 85.4431 223.023 87.2395 223.023 89.4646C223.023 90.3436 223.26 91.6585 223.551 92.3843Z" fill="#B3C2FF"/>
<path d="M198.672 63.4386C197.919 66.799 199.374 69.9223 202.447 71.5439C203.981 72.3534 204.392 72.4349 206.383 72.3127C209.076 72.1474 210.853 71.1127 212.206 68.9211C215.8 63.0961 210.225 56.0758 203.57 58.0471C202.76 58.2866 201.692 59.0219 200.679 60.0279C199.341 61.362 199.006 61.9296 198.672 63.4386Z" fill="#B3C2FF"/>
<path d="M164.224 55.3189C164.224 58.2746 166.255 61.2805 168.884 62.2218C170.818 62.8856 172.933 62.7846 174.796 61.9392C180.045 59.4889 180.428 52.1621 175.465 49.0867C170.604 46.0736 164.224 49.6112 164.224 55.3189Z" fill="#B3C2FF"/>
<path d="M198.564 123.275C195.943 122.312 194.218 120.322 193.728 117.694C192.72 112.276 197.697 107.668 202.916 109.189C206.216 110.152 208.364 112.935 208.364 116.25C208.364 121.361 203.279 125.007 198.564 123.275ZM173.508 96.2334C170.719 94.964 168.758 91.7041 169.075 88.8682C169.797 82.4588 177.427 79.8241 181.897 84.442C183.097 85.6779 184.003 87.8431 184.003 89.4646C184.003 91.0886 183.095 93.2538 181.9 94.4897C180.387 96.0466 178.612 96.813 176.502 96.813C175.496 96.813 174.256 96.5735 173.508 96.2334ZM126.967 62.1117C124.241 60.8255 122.616 58.289 122.618 55.319C122.625 48.6437 130.661 45.4748 135.34 50.3011C138.552 53.616 137.835 59.113 133.873 61.568C131.911 62.7848 128.898 63.0219 126.967 62.1117ZM227.881 96.4897C226.45 96.0729 224.154 93.8957 223.552 92.3844C223.26 91.6586 223.023 90.3437 223.023 89.4646C223.023 87.2395 223.831 85.4431 225.487 83.9797C227.795 81.9438 230.739 81.5318 233.559 82.8492C236.235 84.097 237.752 86.4922 237.752 89.4646C237.752 94.5185 232.923 97.9555 227.881 96.4897ZM202.447 71.5439C199.374 69.9224 197.919 66.7991 198.672 63.4387C199.006 61.9297 199.341 61.362 200.679 60.0279C201.692 59.022 202.76 58.2866 203.57 58.0471C210.225 56.0759 215.8 63.0961 212.206 68.9212C210.854 71.1128 209.076 72.1475 206.383 72.3128C204.392 72.4349 203.981 72.3535 202.447 71.5439ZM168.884 62.2219C166.256 61.2806 164.225 58.2747 164.225 55.319C164.225 49.6113 170.605 46.0736 175.465 49.0868C180.428 52.1622 180.046 59.489 174.796 61.9393C172.933 62.7846 170.819 62.8857 168.884 62.2219Z" fill="#B3C2FF"/>
</svg>
