<svg width="310" height="76" viewBox="0 0 310 76" fill="none" xmlns="http://www.w3.org/2000/svg">
<g clip-path="url(#clip0_288_1258)">
<path d="M41.9001 52.0002C38.5001 53.5002 34.3 54.3002 29.3 54.3002C14.6 54.3002 7.30005 46.8002 7.30005 31.9002C7.30005 17.8002 14.8001 10.7002 29.7001 10.7002C34.3001 10.7002 38.3001 11.4002 41.9001 12.8002V20.0002C38.3001 18.4002 34.4 17.6002 30.3 17.6002C20.3 17.6002 15.3 22.4002 15.3 31.9002C15.3 42.2002 20 47.4002 29.4 47.4002C30.8 47.4002 32.4001 47.2002 34.2001 46.7002V34.2002H41.9001V52.0002Z" fill="#B3C2FF"/>
<path d="M45.3 32.6002C45.3 18.0002 52.3 10.7002 66.2 10.7002C79.9 10.7002 86.8001 18.0002 86.8001 32.6002C86.8001 47.1002 79.9 54.4002 66.2 54.4002C52.9 54.3002 45.9 47.1002 45.3 32.6002ZM66.2 47.4002C74.6 47.4002 78.8001 42.4002 78.8001 32.4002C78.8001 22.6002 74.6 17.6002 66.2 17.6002C57.6 17.6002 53.3 22.5002 53.3 32.4002C53.3 42.4002 57.6 47.4002 66.2 47.4002Z" fill="#B3C2FF"/>
<path d="M127.7 11V17.9H115.8V54H108.1V17.9H96.1001V11H127.7Z" fill="#B3C2FF"/>
<path d="M126.9 54V11H145.8C154.3 11 158.5 14.8 158.5 22.5C158.5 27.7 155.2 32 148.6 35.4L161.8 54H151.8L139.1 35.3V31.7C146.7 30.4 150.4 27.4 150.4 22.8C150.4 19.6 148.7 18 145.2 18H134.6V54H126.9Z" fill="#B3C2FF"/>
<path d="M163 32.6002C163 18.0002 170 10.7002 183.9 10.7002C197.6 10.7002 204.5 18.0002 204.5 32.6002C204.5 47.1002 197.6 54.4002 183.9 54.4002C170.6 54.3002 163.6 47.1002 163 32.6002ZM183.9 47.4002C192.3 47.4002 196.5 42.4002 196.5 32.4002C196.5 22.6002 192.3 17.6002 183.9 17.6002C175.3 17.6002 171 22.5002 171 32.4002C171 42.4002 175.3 47.4002 183.9 47.4002Z" fill="#B3C2FF"/>
<path d="M209.4 54V11H217.1L240.2 41.7V11H247.6V54H239.9L216.8 22.6V54H209.4Z" fill="#B3C2FF"/>
<path d="M261.7 11H254V54H261.7V11Z" fill="#B3C2FF"/>
<path d="M301.2 52.2002C297.6 53.6002 293.5 54.3002 289 54.3002C274.1 54.3002 266.6 46.8002 266.6 31.9002C266.6 17.8002 274.1 10.7002 289 10.7002C293.6 10.7002 297.6 11.4002 301.2 12.8002V20.0002C297.6 18.4002 293.7 17.6002 289.6 17.6002C279.6 17.6002 274.6 22.4002 274.6 31.9002C274.6 42.2002 279.6 47.4002 289.6 47.4002C293.8 47.4002 297.6 46.6002 301.2 45.0002V52.2002Z" fill="#B3C2FF"/>
<path d="M8.1001 70.5003V63.3003H11.6001C13.2001 63.3003 14.0001 63.9003 14.0001 65.2003C14.0001 66.1003 13.4001 66.8003 12.2001 67.4003L14.6001 70.5003H12.8001L10.5001 67.4003V66.8003C11.9001 66.6003 12.5001 66.1003 12.5001 65.3003C12.5001 64.8003 12.2001 64.5003 11.5001 64.5003H9.6001V70.5003H8.1001Z" fill="#B3C2FF"/>
<path d="M16.1001 67.0003C16.1001 64.6003 17.4001 63.3003 20.0001 63.3003C22.5001 63.3003 23.8001 64.5003 23.8001 67.0003C23.8001 69.4003 22.5001 70.6003 20.0001 70.6003C17.5001 70.6003 16.2001 69.4003 16.1001 67.0003ZM19.9001 69.4003C21.4001 69.4003 22.2001 68.6003 22.2001 66.9003C22.2001 65.2003 21.4001 64.4003 19.9001 64.4003C18.3001 64.4003 17.5001 65.2003 17.5001 66.9003C17.6001 68.6003 18.4001 69.4003 19.9001 69.4003Z" fill="#B3C2FF"/>
<path d="M26.2001 70.6004V63.4004H29.8001C31.3001 63.4004 32.0001 64.0004 32.0001 65.1004C32.0001 65.9004 31.5001 66.5004 30.6001 66.9004C31.6001 67.1004 32.1001 67.6004 32.1001 68.5004C32.1001 69.9004 31.3001 70.6004 29.7001 70.6004H26.2001ZM29.6001 69.4004C30.2001 69.4004 30.5001 69.1004 30.5001 68.5004C30.5001 67.7004 30.0001 67.4004 29.1001 67.4004H28.7001V66.5004C29.9001 66.3004 30.5001 65.9004 30.5001 65.1004C30.5001 64.7004 30.2001 64.5004 29.7001 64.5004H27.6001V69.4004H29.6001Z" fill="#B3C2FF"/>
<path d="M34.1001 67.0003C34.1001 64.6003 35.4001 63.3003 38.0001 63.3003C40.5001 63.3003 41.8001 64.5003 41.8001 67.0003C41.8001 69.4003 40.5001 70.6003 38.0001 70.6003C35.5001 70.6003 34.2001 69.4003 34.1001 67.0003ZM38.0001 69.4003C39.5001 69.4003 40.3001 68.6003 40.3001 66.9003C40.3001 65.2003 39.5001 64.4003 38.0001 64.4003C36.4001 64.4003 35.6001 65.2003 35.6001 66.9003C35.6001 68.6003 36.4001 69.4003 38.0001 69.4003Z" fill="#B3C2FF"/>
<path d="M49.2 63.3003V64.5003H47V70.6003H45.6V64.5003H43.4V63.3003H49.2Z" fill="#B3C2FF"/>
<path d="M52.5001 63.3003H51.1001V70.5003H52.5001V63.3003Z" fill="#B3C2FF"/>
<path d="M55 67.0003C55 64.6003 56.3 63.3003 58.9 63.3003C61.4 63.3003 62.7 64.5003 62.7 67.0003C62.7 69.0003 61.9 70.2003 60.3 70.6003L61.5 72.0003L60.4 72.8003L58.7 70.7003C56.3 70.6003 55.1 69.4003 55 67.0003ZM58.8 69.4003C60.3 69.4003 61.1 68.6003 61.1 66.9003C61.1 65.2003 60.3 64.4003 58.8 64.4003C57.2 64.4003 56.4 65.2003 56.4 66.9003C56.4 68.6003 57.2 69.4003 58.8 69.4003Z" fill="#B3C2FF"/>
<path d="M65.1001 67.7003V63.3003H66.5001V67.7003C66.5001 68.9003 67.1001 69.4003 68.4001 69.4003C69.7001 69.4003 70.3001 68.8003 70.3001 67.7003V63.3003H71.7001V67.7003C71.7001 69.6003 70.6001 70.6003 68.4001 70.6003C66.2001 70.6003 65.1001 69.6003 65.1001 67.7003Z" fill="#B3C2FF"/>
<path d="M79.6 63.3003V64.5003H75.8V66.3003H79.4V67.5003H75.8V69.4003H79.7V70.6003H74.4V63.3003H79.6Z" fill="#B3C2FF"/>
<path d="M90.9001 63.3003V64.5003H87.0001V66.3003H90.7001V67.5003H87.0001V69.4003H91.0001V70.6003H85.6001V63.3003H90.9001Z" fill="#B3C2FF"/>
<path d="M98.4001 63.3003V64.5003H96.2001V70.6003H94.8001V64.5003H92.6001V63.3003H98.4001Z" fill="#B3C2FF"/>
<path d="M109.9 70.3003C109.2 70.5003 108.5 70.7003 107.6 70.7003C104.8 70.7003 103.5 69.4003 103.5 66.9003C103.5 64.5003 104.9 63.3003 107.6 63.3003C108.4 63.3003 109.2 63.4003 109.9 63.7003V64.9003C109.2 64.6003 108.5 64.5003 107.8 64.5003C106 64.5003 105 65.3003 105 66.9003C105 68.6003 105.9 69.5003 107.8 69.5003C108.6 69.5003 109.3 69.4003 109.9 69.1003V70.3003Z" fill="#B3C2FF"/>
<path d="M112.1 67.0003C112.1 64.6003 113.4 63.3003 116 63.3003C118.5 63.3003 119.8 64.5003 119.8 67.0003C119.8 69.4003 118.5 70.6003 116 70.6003C113.5 70.6003 112.2 69.4003 112.1 67.0003ZM116 69.4003C117.5 69.4003 118.3 68.6003 118.3 66.9003C118.3 65.2003 117.5 64.4003 116 64.4003C114.4 64.4003 113.6 65.2003 113.6 66.9003C113.6 68.6003 114.4 69.4003 116 69.4003Z" fill="#B3C2FF"/>
<path d="M122.2 70.6003V63.3003H123.7L126.3 68.8003L128.8 63.3003H130.2V70.6003H128.9V65.5003L126.8 70.6003H125.6L123.5 65.5003V70.6003H122.2Z" fill="#B3C2FF"/>
<path d="M133 70.6004V63.4004H136.4C138 63.4004 138.8 64.1004 138.8 65.4004C138.8 66.9004 137.7 67.8004 135.6 68.1004L135.4 66.9004C136.7 66.7004 137.3 66.2004 137.3 65.5004C137.3 64.9004 137 64.6004 136.3 64.6004H134.4V70.6004H133Z" fill="#B3C2FF"/>
<path d="M140.5 67.0003C140.5 64.6003 141.8 63.3003 144.4 63.3003C146.9 63.3003 148.2 64.5003 148.2 67.0003C148.2 69.4003 146.9 70.6003 144.4 70.6003C141.9 70.6003 140.6 69.4003 140.5 67.0003ZM144.4 69.4003C145.9 69.4003 146.7 68.6003 146.7 66.9003C146.7 65.2003 145.9 64.4003 144.4 64.4003C142.8 64.4003 142 65.2003 142 66.9003C142 68.6003 142.8 69.4003 144.4 69.4003Z" fill="#B3C2FF"/>
<path d="M150.5 70.3003V69.0003C151.3 69.3003 152.1 69.4003 153.1 69.4003C154.3 69.4003 154.9 69.0003 154.9 68.3003C154.9 67.8003 154.5 67.5003 153.8 67.5003H152.6C151 67.5003 150.2 66.8003 150.2 65.5003C150.2 64.0003 151.3 63.3003 153.6 63.3003C154.5 63.3003 155.3 63.4003 156 63.7003V64.9003C155.2 64.6003 154.4 64.5003 153.6 64.5003C152.3 64.5003 151.7 64.9003 151.7 65.6003C151.7 66.1003 152 66.4003 152.6 66.4003H153.8C155.5 66.4003 156.3 67.1003 156.3 68.4003C156.3 69.9003 155.2 70.7003 153.1 70.7003C152.1 70.6003 151.2 70.5003 150.5 70.3003Z" fill="#B3C2FF"/>
<path d="M159.4 70.6003H157.9L161.2 63.3003H162.7L166 70.6003H164.5L163.6 68.6003H161.1L161.5 67.4003H163.1L161.9 64.7003L159.4 70.6003Z" fill="#B3C2FF"/>
<path d="M168.1 70.6003V63.3003H169.5L173.5 68.6003V63.3003H174.9V70.6003H173.5L169.4 65.2003V70.6003H168.1Z" fill="#B3C2FF"/>
<path d="M182.6 63.3003V64.5003H180.4V70.6003H179V64.5003H176.8V63.3003H182.6Z" fill="#B3C2FF"/>
<path d="M184.4 70.3003V69.0003C185.2 69.3003 186 69.4003 187 69.4003C188.2 69.4003 188.8 69.0003 188.8 68.3003C188.8 67.8003 188.4 67.5003 187.7 67.5003H186.5C184.9 67.5003 184.1 66.8003 184.1 65.5003C184.1 64.0003 185.2 63.3003 187.5 63.3003C188.4 63.3003 189.2 63.4003 189.9 63.7003V64.9003C189.1 64.6003 188.3 64.5003 187.5 64.5003C186.2 64.5003 185.6 64.9003 185.6 65.6003C185.6 66.1003 185.9 66.4003 186.5 66.4003H187.7C189.4 66.4003 190.2 67.1003 190.2 68.4003C190.2 69.9003 189.1 70.7003 187 70.7003C186 70.6003 185.2 70.5003 184.4 70.3003Z" fill="#B3C2FF"/>
<path d="M204.8 63.3004V64.5004H201V66.3004H204.7V67.5004H201V69.4004H204.9V70.6004H199.6V63.4004H204.8V63.3004ZM202 61.4004H203.7L202.4 62.7004H201.2L202 61.4004Z" fill="#B3C2FF"/>
<path d="M208.7 63.3003V69.4003H211.7V70.6003H207.3V63.3003H208.7Z" fill="#B3C2FF"/>
<path d="M219.4 63.3003V64.5003H215.6V66.3003H219.3V67.5003H215.6V69.4003H219.5V70.6003H214.2V63.3003H219.4Z" fill="#B3C2FF"/>
<path d="M228 70.3003C227.3 70.5003 226.6 70.7003 225.7 70.7003C222.9 70.7003 221.6 69.4003 221.6 66.9003C221.6 64.5003 223 63.3003 225.7 63.3003C226.5 63.3003 227.3 63.4003 228 63.7003V64.9003C227.3 64.6003 226.6 64.5003 225.9 64.5003C224.1 64.5003 223.1 65.3003 223.1 66.9003C223.1 68.6003 224 69.5003 225.9 69.5003C226.7 69.5003 227.4 69.4003 228 69.1003V70.3003Z" fill="#B3C2FF"/>
<path d="M235.5 63.3003V64.5003H233.3V70.6003H231.9V64.5003H229.7V63.3003H235.5Z" fill="#B3C2FF"/>
<path d="M237.4 70.5003V63.3003H240.9C242.5 63.3003 243.3 63.9003 243.3 65.2003C243.3 66.1003 242.7 66.8003 241.5 67.4003L243.9 70.5003H242.1L239.8 67.4003V66.8003C241.2 66.6003 241.8 66.1003 241.8 65.3003C241.8 64.8003 241.5 64.5003 240.8 64.5003H238.9V70.5003H237.4Z" fill="#B3C2FF"/>
<path d="M245.3 67.0003C245.3 64.6003 246.6 63.3003 249.2 63.3003C251.7 63.3003 253 64.5003 253 67.0003C253 69.4003 251.7 70.6003 249.2 70.6003C246.7 70.6003 245.5 69.4003 245.3 67.0003ZM249.2 69.4003C250.7 69.4003 251.5 68.6003 251.5 66.9003C251.5 65.2003 250.7 64.4003 249.2 64.4003C247.6 64.4003 246.8 65.2003 246.8 66.9003C246.8 68.6003 247.6 69.4003 249.2 69.4003Z" fill="#B3C2FF"/>
<path d="M255.4 70.6003V63.3003H256.9L260.9 68.6003V63.3003H262.3V70.6003H260.9L256.8 65.2003V70.6003H255.4Z" fill="#B3C2FF"/>
<path d="M266.4 63.3003H265V70.5003H266.4V63.3003Z" fill="#B3C2FF"/>
<path d="M268.9 67.0003C268.9 64.6003 270.2 63.3003 272.8 63.3003C275.3 63.3003 276.6 64.5003 276.6 67.0003C276.6 69.0003 275.8 70.2003 274.2 70.6003L275.4 72.0003L274.3 72.8003L272.6 70.7003C270.2 70.6003 269 69.4003 268.9 67.0003ZM272.7 69.4003C274.2 69.4003 275 68.6003 275 66.9003C275 65.2003 274.2 64.4003 272.7 64.4003C271.1 64.4003 270.3 65.2003 270.3 66.9003C270.3 68.6003 271.1 69.4003 272.7 69.4003Z" fill="#B3C2FF"/>
<path d="M278.9 67.7003V63.3003H280.3V67.7003C280.3 68.9003 280.9 69.4003 282.2 69.4003C283.5 69.4003 284.1 68.8003 284.1 67.7003V63.3003H285.5V67.7003C285.5 69.6003 284.4 70.6003 282.2 70.6003C280 70.6003 278.9 69.6003 278.9 67.7003Z" fill="#B3C2FF"/>
<path d="M293.5 63.3003V64.5003H289.7V66.3003H293.3V67.5003H289.7V69.4003H293.6V70.6003H288.3V63.3003H293.5Z" fill="#B3C2FF"/>
<path d="M295.9 70.3003V69.0003C296.7 69.3003 297.5 69.4003 298.5 69.4003C299.7 69.4003 300.3 69.0003 300.3 68.3003C300.3 67.8003 299.9 67.5003 299.2 67.5003H298C296.4 67.5003 295.6 66.8003 295.6 65.5003C295.6 64.0003 296.7 63.3003 299 63.3003C299.9 63.3003 300.7 63.4003 301.4 63.7003V64.9003C300.6 64.6003 299.8 64.5003 299 64.5003C297.7 64.5003 297.1 64.9003 297.1 65.6003C297.1 66.1003 297.4 66.4003 298 66.4003H299.2C300.9 66.4003 301.7 67.1003 301.7 68.4003C301.7 69.9003 300.6 70.7003 298.5 70.7003C297.5 70.6003 296.6 70.5003 295.9 70.3003Z" fill="#B3C2FF"/>
</g>
<defs>
<clipPath id="clip0_288_1258">
<rect width="309.2" height="75.8" fill="white"/>
</clipPath>
</defs>
</svg>
